<svg width="24" height="22" viewBox="0 0 24 22" fill="none" xmlns="http://www.w3.org/2000/svg">
<path d="M21.984 15.348C22.04 15.236 22.04 15.124 22.096 15.012C23.442 9.74 20.245 3.572 14.749 0.319C17.161 3.572 18.114 7.441 17.273 10.918C17.217 11.198 17.105 11.535 16.993 11.815C16.8383 11.7294 16.6881 11.636 16.543 11.535C16.543 11.535 11.104 8.17 5.27298 2.282C5.10398 2.114 8.41298 6.992 12.114 10.862C10.376 9.852 5.44098 6.32 2.35598 3.459C2.69298 4.076 3.19798 4.693 3.70198 5.31C6.28198 8.619 9.64698 12.656 13.685 15.74C10.825 17.48 6.84298 17.591 2.80498 15.74C1.79498 15.292 0.954977 14.731 0.000976562 14.058C1.68298 16.694 4.31898 19.106 7.45998 20.395C11.217 22.022 15.03 21.91 17.778 20.395H17.835C17.947 20.339 18.059 20.283 18.171 20.171C19.517 19.498 22.153 18.769 23.611 21.573C24.003 22.358 24.732 18.713 21.985 15.348H21.984Z" fill="#FA7343"/>
</svg>
